<?xml version="1.0" encoding="iso-8859-1"?>
<!-- Uploaded to: SVG Repo, www.svgrepo.com, Generator: SVG Repo Mixer Tools -->
<svg fill="#000000" height="800px" width="800px" version="1.1" id="Layer_1" xmlns="http://www.w3.org/2000/svg" xmlns:xlink="http://www.w3.org/1999/xlink" 
	 viewBox="0 0 506.616 506.616" xml:space="preserve">
<g>
	<g>
		<path d="M465.411,427.184c-94.332-1.536-171.076-79.532-171.076-173.876s76.748-172.34,171.08-173.872
			c1.592-0.02,3.02-1.004,3.612-2.488c0.588-1.484,0.24-3.176-0.904-4.292C420.447,25.804,357.403,0,290.615,0
			C150.939,0,37.307,113.632,37.307,253.308c0,139.68,113.632,253.308,253.308,253.308c66.788,0,129.832-25.804,177.508-72.66
			c1.14-1.116,1.492-2.808,0.904-4.288C468.431,428.184,467.007,427.204,465.411,427.184z"/>
	</g>
</g>
</svg>